<?xml version="1.0" encoding="UTF-8"?>
<svg version="1.1" xmlns="http://www.w3.org/2000/svg" width="512" height="512">
<path d="M0 0 C0.78616699 0.24057129 1.57233398 0.48114258 2.38232422 0.72900391 C28.48683642 8.89815594 52.66819639 21.89290506 74 39 C74.99644531 39.79277344 75.99289062 40.58554688 77.01953125 41.40234375 C91.24678034 52.955897 104.34464763 66.06833105 115 81 C115.47211914 81.65484375 115.94423828 82.3096875 116.43066406 82.984375 C142.77962042 119.89719865 157.21192824 163.33951883 157.25 208.6875 C157.25067474 209.41376587 157.25134949 210.14003174 157.25204468 210.88830566 C157.16327239 271.40279782 131.47628585 324.05500714 90 367 C87.44056692 369.48474145 84.77182794 371.75613928 82 374 C80.90102882 374.91144285 79.80207184 375.82290281 78.703125 376.734375 C58.06036006 393.70579408 35.22308124 407.03532431 10 416 C8.84733643 416.41306396 8.84733643 416.41306396 7.67138672 416.83447266 C-49.44768961 436.94921425 -114.37466424 432.99263124 -168.96972656 406.99951172 C-181.67329306 400.74549522 -193.62752605 393.42733138 -205 385 C-205.94576904 384.29979736 -205.94576904 384.29979736 -206.91064453 383.58544922 C-225.31565493 369.74514547 -241.97462974 353.00408524 -255 334 C-255.49757813 333.28231445 -255.99515625 332.56462891 -256.5078125 331.82519531 C-283.22799985 292.82399878 -283.22799985 292.82399878 -281 275 C-279.67121784 271.01365351 -277.46476694 268.41072427 -274.3125 265.625 C-269.42143386 263.22560907 -265.09772356 262.19097254 -259.7265625 263.59375 C-255.94191774 265.05228419 -252.33983283 266.83350202 -248.69921875 268.6171875 C-206.93615614 288.91502021 -157.74255551 290.69242378 -114.02246094 275.83984375 C-97.0965178 269.74005252 -81.03285252 261.30588903 -67 250 C-66.41959961 249.53625977 -65.83919922 249.07251953 -65.24121094 248.59472656 C-34.55728629 223.83255125 -13.55270505 188.17921316 -9.22705078 148.69140625 C-6.25903824 113.50928765 -14.5596869 77.51430642 -36 49 C-36.93392578 47.75283203 -36.93392578 47.75283203 -37.88671875 46.48046875 C-45.64168581 36.4918195 -54.14798528 27.42545294 -63.78515625 19.25390625 C-67.37244328 15.60335137 -68.29546299 12.0971927 -68.375 7.0625 C-68.26857783 2.28769183 -67.21792805 -0.34721681 -64 -4 C-49.23809448 -17.00453581 -16.95050323 -5.21029854 0 0 Z M-5 34 C-4.6596875 34.6084375 -4.319375 35.216875 -3.96875 35.84375 C21.17936192 81.32437794 32.12625083 129.83271276 18.03271484 181.19897461 C17.37717959 183.47338247 16.69808379 185.73830969 16 188 C15.69352539 188.99362549 15.69352539 188.99362549 15.38085938 190.00732422 C4.72214597 223.37924833 -17.56330187 253.51135798 -45 275 C-45.53592773 275.42297363 -46.07185547 275.84594727 -46.62402344 276.28173828 C-78.81179639 301.48396028 -120.56753893 317.82141758 -161.71484375 318.23828125 C-162.52022079 318.24789383 -163.32559784 318.25750641 -164.15538025 318.26741028 C-166.74946391 318.2920034 -169.34331347 318.30466041 -171.9375 318.3125 C-172.82350891 318.31578308 -173.70951782 318.31906616 -174.62237549 318.32244873 C-189.75777906 318.34055369 -204.14687854 317.06369868 -219 314 C-220.89833165 313.62186407 -222.79676478 313.24423708 -224.6953125 312.8671875 C-226.13030875 312.57862392 -227.56524465 312.28975896 -229 312 C-203.00707108 352.85173511 -159.18580168 381.04760274 -112.265625 391.57421875 C-61.63217814 402.22847763 -7.26717126 394.74460068 36.6875 366.375 C38.80780251 364.94022799 40.91296796 363.48275108 43 362 C44.546875 360.90751953 44.546875 360.90751953 46.125 359.79296875 C55.10648275 353.25160823 63.15958795 345.85281777 71 338 C72.11568359 336.95392578 72.11568359 336.95392578 73.25390625 335.88671875 C104.97652093 305.66703675 122.72790292 260.07105083 124.3203125 216.8125 C125.46649132 165.36734343 106.93631721 118.75190551 71.69140625 81.47265625 C50.92112587 59.92747452 25.24758542 43.79331239 -3 34 C-3.66 34 -4.32 34 -5 34 Z " fill="#000000" transform="translate(318,46)"/>
</svg>
